<svg width="42" height="36" viewBox="0 0 42 36" fill="none" xmlns="http://www.w3.org/2000/svg">
<path d="M40.3987 29.718H5.21273V1.4859C5.21273 0.66494 4.62956 0 3.90955 0H1.30318C0.583175 0 0 0.66494 0 1.4859V32.6898C0 34.3308 1.16716 35.6616 2.60637 35.6616H40.3987C41.1187 35.6616 41.7019 34.9966 41.7019 34.1757V31.2039C41.7019 30.3829 41.1187 29.718 40.3987 29.718ZM37.7923 2.9718H28.1765C26.4351 2.9718 25.5628 5.37245 26.7943 6.77663L29.4332 9.78557L23.4573 16.6003L17.4814 9.7865C16.4633 8.62564 14.8131 8.62564 13.7958 9.7865L8.2011 16.1656C7.69204 16.7461 7.69204 17.6868 8.2011 18.2673L10.0435 20.368C10.5525 20.9484 11.3776 20.9484 11.8867 20.368L15.6382 16.0895L21.6141 22.9033C22.6322 24.0641 24.2824 24.0641 25.2997 22.9033L33.1188 13.9879L35.7577 16.9968C36.9892 18.401 39.0947 17.4064 39.0947 15.4208V4.4577C39.0955 3.63674 38.5123 2.9718 37.7923 2.9718Z" fill="white"/>
</svg>
