<svg width="763" height="738" viewBox="0 0 763 738" fill="none" xmlns="http://www.w3.org/2000/svg">
<path d="M357.656 61.5C357.656 55.3834 360.168 49.5174 364.64 45.1924C369.112 40.8673 375.176 38.4375 381.5 38.4375C570.247 38.4375 723.26 186.437 723.26 369C723.26 551.563 570.247 699.562 381.5 699.562C192.753 699.562 39.7396 551.563 39.7396 369C39.6863 325.026 48.7299 281.486 66.338 240.944C83.9461 200.402 109.763 163.677 142.268 132.932C144.492 130.762 147.141 129.04 150.059 127.868C152.977 126.697 156.107 126.097 159.267 126.106C162.427 126.114 165.554 126.73 168.465 127.918C171.377 129.105 174.016 130.84 176.228 133.023C178.44 135.205 180.181 137.791 181.351 140.63C182.521 143.47 183.096 146.505 183.042 149.561C182.988 152.617 182.307 155.632 181.038 158.431C179.768 161.23 177.937 163.757 175.649 165.866C147.673 192.317 125.454 223.917 110.302 258.805C95.1508 293.692 87.3729 331.16 87.4271 369C87.4271 425.256 104.674 480.25 136.987 527.025C169.3 573.801 215.228 610.258 268.963 631.786C322.698 653.314 381.826 658.947 438.871 647.972C495.915 636.997 548.314 609.907 589.441 570.128C630.568 530.348 658.576 479.666 669.922 424.491C681.269 369.316 675.446 312.125 653.188 260.15C630.93 208.176 593.238 163.753 544.878 132.499C496.518 101.244 439.662 84.5625 381.5 84.5625C375.176 84.5625 369.112 82.1327 364.64 77.8077C360.168 73.4826 357.656 67.6166 357.656 61.5Z" fill="white" fill-opacity="0.13"/>
<path d="M357.656 153.75C357.656 147.633 360.168 141.767 364.64 137.442C369.112 133.117 375.176 130.688 381.5 130.688C430.23 130.687 477.867 144.664 518.384 170.85C558.902 197.037 590.482 234.256 609.131 277.802C627.779 321.348 632.658 369.264 623.151 415.492C613.644 461.721 590.178 504.184 555.721 537.512C521.263 570.841 477.362 593.538 429.567 602.733C381.773 611.929 332.233 607.209 287.212 589.172C242.191 571.135 203.711 540.59 176.638 501.399C149.565 462.209 135.115 416.134 135.115 369C135.115 362.883 137.627 357.017 142.098 352.692C146.57 348.367 152.635 345.938 158.958 345.938C165.282 345.938 171.347 348.367 175.818 352.692C180.29 357.017 182.802 362.883 182.802 369C182.802 407.011 194.456 444.169 216.289 475.774C238.122 507.379 269.154 532.012 305.462 546.558C341.769 561.104 381.72 564.91 420.264 557.495C458.808 550.079 494.212 531.775 522.001 504.897C549.789 478.019 568.713 443.775 576.38 406.494C584.047 369.213 580.112 330.571 565.073 295.453C550.034 260.335 524.566 230.32 491.891 209.202C459.215 188.084 420.799 176.812 381.5 176.812C375.176 176.812 369.112 174.383 364.64 170.058C360.168 165.733 357.656 159.867 357.656 153.75Z" fill="white" fill-opacity="0.13"/>
<path d="M381.5 222.937C375.176 222.937 369.112 225.367 364.64 229.692C360.168 234.017 357.656 239.883 357.656 246C357.656 252.117 360.168 257.983 364.64 262.308C369.112 266.633 375.176 269.062 381.5 269.062C408.903 269.062 435.184 279.592 454.56 298.334C473.937 317.075 484.823 342.495 484.823 369C484.823 395.505 473.937 420.925 454.56 439.666C435.184 458.408 408.903 468.937 381.5 468.937C375.176 468.937 369.112 471.367 364.64 475.692C360.168 480.017 357.656 485.883 357.656 492C357.656 498.117 360.168 503.983 364.64 508.308C369.112 512.633 375.176 515.062 381.5 515.062C421.55 515.062 459.961 499.674 488.28 472.282C516.6 444.89 532.51 407.738 532.51 369C532.51 330.262 516.6 293.11 488.28 265.718C459.961 238.326 421.55 222.937 381.5 222.937Z" fill="white" fill-opacity="0.13"/>
</svg>
