<svg width="203" height="50" viewBox="0 0 203 50" fill="none" xmlns="http://www.w3.org/2000/svg">
<path d="M56.1337 41.7414H7.24306V2.5131C7.24306 1.37239 6.43275 0.448456 5.4323 0.448456H1.81077C0.810318 0.448456 0 1.37239 0 2.5131V45.8707C0 48.1509 1.62177 50 3.62153 50H56.1337C57.1342 50 57.9445 49.0761 57.9445 47.9354V43.8061C57.9445 42.6653 57.1342 41.7414 56.1337 41.7414ZM52.5122 4.57775H39.151C36.7314 4.57775 35.5193 7.91345 37.2305 9.86454L40.8973 14.0455L32.5938 23.5144L24.2903 14.0467C22.8756 12.4337 20.5828 12.4337 19.1692 14.0467L11.3954 22.9105C10.688 23.717 10.688 25.0242 11.3954 25.8307L13.9553 28.7496C14.6627 29.5561 15.8091 29.5561 16.5165 28.7496L21.7292 22.8047L30.0327 32.2724C31.4473 33.8854 33.7402 33.8854 35.1538 32.2724L46.0184 19.8845L49.6852 24.0654C51.3963 26.0165 54.3219 24.6345 54.3219 21.8756V6.6424C54.323 5.50168 53.5127 4.57775 52.5122 4.57775Z" fill="white"/>
<path d="M72.38 25.88C73.42 25.88 74.3333 25.7467 75.12 25.48C75.92 25.2133 76.58 24.84 77.1 24.36C77.6333 23.8667 78.0333 23.2733 78.3 22.58C78.5667 21.8867 78.7 21.1133 78.7 20.26C78.7 19.42 78.5667 18.6667 78.3 18C78.0467 17.3333 77.66 16.7667 77.14 16.3C76.62 15.8333 75.96 15.48 75.16 15.24C74.3733 14.9867 73.4467 14.86 72.38 14.86H68.1V25.88H72.38ZM72.38 11.2C74.26 11.2 75.8867 11.42 77.26 11.86C78.6467 12.3 79.7867 12.92 80.68 13.72C81.5867 14.5067 82.26 15.46 82.7 16.58C83.14 17.6867 83.36 18.9133 83.36 20.26C83.36 21.6333 83.1267 22.8933 82.66 24.04C82.1933 25.1733 81.5 26.1533 80.58 26.98C79.66 27.7933 78.5133 28.4333 77.14 28.9C75.78 29.3533 74.1933 29.58 72.38 29.58H68.1V40H63.42V11.2H72.38ZM90.7425 23.38C91.3825 22.0867 92.1558 21.0733 93.0625 20.34C93.9692 19.5933 95.0558 19.22 96.3225 19.22C96.7625 19.22 97.1758 19.2733 97.5625 19.38C97.9492 19.4733 98.2958 19.62 98.6025 19.82L98.3025 23.06C98.2492 23.2867 98.1625 23.4467 98.0425 23.54C97.9358 23.62 97.7892 23.66 97.6025 23.66C97.4025 23.66 97.1158 23.6267 96.7425 23.56C96.3692 23.48 95.9758 23.44 95.5625 23.44C94.9625 23.44 94.4292 23.5267 93.9625 23.7C93.5092 23.8733 93.0958 24.1267 92.7225 24.46C92.3625 24.7933 92.0425 25.2 91.7625 25.68C91.4825 26.16 91.2225 26.7067 90.9825 27.32V40H86.6825V19.6H89.1825C89.6358 19.6 89.9492 19.6867 90.1225 19.86C90.2958 20.02 90.4158 20.3067 90.4825 20.72L90.7425 23.38ZM109.565 19.28C111.072 19.28 112.432 19.5267 113.645 20.02C114.872 20.5133 115.912 21.2133 116.765 22.12C117.632 23.0267 118.298 24.1267 118.765 25.42C119.232 26.7133 119.465 28.1667 119.465 29.78C119.465 31.3933 119.232 32.8467 118.765 34.14C118.298 35.4333 117.632 36.54 116.765 37.46C115.912 38.3667 114.872 39.0667 113.645 39.56C112.432 40.0533 111.072 40.3 109.565 40.3C108.045 40.3 106.672 40.0533 105.445 39.56C104.232 39.0667 103.192 38.3667 102.325 37.46C101.458 36.54 100.792 35.4333 100.325 34.14C99.8583 32.8467 99.625 31.3933 99.625 29.78C99.625 28.1667 99.8583 26.7133 100.325 25.42C100.792 24.1267 101.458 23.0267 102.325 22.12C103.192 21.2133 104.232 20.5133 105.445 20.02C106.672 19.5267 108.045 19.28 109.565 19.28ZM109.565 36.94C111.405 36.94 112.772 36.3267 113.665 35.1C114.572 33.86 115.025 32.0933 115.025 29.8C115.025 27.5067 114.572 25.74 113.665 24.5C112.772 23.2467 111.405 22.62 109.565 22.62C107.698 22.62 106.312 23.2467 105.405 24.5C104.498 25.74 104.045 27.5067 104.045 29.8C104.045 32.0933 104.498 33.86 105.405 35.1C106.312 36.3267 107.698 36.94 109.565 36.94ZM128.077 19.6V41.06C128.077 41.9133 127.963 42.7133 127.737 43.46C127.51 44.22 127.15 44.88 126.657 45.44C126.163 46 125.523 46.44 124.737 46.76C123.963 47.08 123.023 47.24 121.917 47.24C121.45 47.24 121.03 47.2067 120.657 47.14C120.283 47.0733 119.903 46.98 119.517 46.86L119.677 44.52C119.717 44.2533 119.83 44.1 120.017 44.06C120.19 44.02 120.53 44 121.037 44C122.05 44 122.757 43.7733 123.157 43.32C123.57 42.88 123.777 42.1267 123.777 41.06V19.6H128.077ZM128.777 13.44C128.777 13.8267 128.697 14.1933 128.537 14.54C128.39 14.8867 128.183 15.1933 127.917 15.46C127.65 15.7133 127.343 15.92 126.997 16.08C126.65 16.2267 126.277 16.3 125.877 16.3C125.49 16.3 125.123 16.2267 124.777 16.08C124.443 15.92 124.143 15.7133 123.877 15.46C123.623 15.1933 123.423 14.8867 123.277 14.54C123.13 14.1933 123.057 13.8267 123.057 13.44C123.057 13.04 123.13 12.6667 123.277 12.32C123.423 11.9733 123.623 11.6733 123.877 11.42C124.143 11.1533 124.443 10.9467 124.777 10.8C125.123 10.64 125.49 10.56 125.877 10.56C126.277 10.56 126.65 10.64 126.997 10.8C127.343 10.9467 127.65 11.1533 127.917 11.42C128.183 11.6733 128.39 11.9733 128.537 12.32C128.697 12.6667 128.777 13.04 128.777 13.44ZM146.859 27.5C146.859 26.78 146.753 26.1133 146.539 25.5C146.339 24.8733 146.039 24.3333 145.639 23.88C145.239 23.4133 144.739 23.0533 144.139 22.8C143.553 22.5333 142.873 22.4 142.099 22.4C140.539 22.4 139.313 22.8467 138.419 23.74C137.526 24.6333 136.959 25.8867 136.719 27.5H146.859ZM136.599 30.14C136.653 31.3 136.833 32.3067 137.139 33.16C137.446 34 137.853 34.7 138.359 35.26C138.879 35.82 139.493 36.24 140.199 36.52C140.919 36.7867 141.719 36.92 142.599 36.92C143.439 36.92 144.166 36.8267 144.779 36.64C145.393 36.44 145.926 36.2267 146.379 36C146.833 35.76 147.219 35.5467 147.539 35.36C147.859 35.16 148.153 35.06 148.419 35.06C148.766 35.06 149.033 35.1933 149.219 35.46L150.439 37.04C149.933 37.64 149.359 38.1467 148.719 38.56C148.079 38.9733 147.399 39.3133 146.679 39.58C145.959 39.8333 145.219 40.0133 144.459 40.12C143.699 40.24 142.959 40.3 142.239 40.3C140.826 40.3 139.513 40.0667 138.299 39.6C137.099 39.12 136.053 38.42 135.159 37.5C134.279 36.58 133.586 35.44 133.079 34.08C132.586 32.72 132.339 31.1533 132.339 29.38C132.339 27.9667 132.559 26.6467 132.999 25.42C133.453 24.1933 134.093 23.1267 134.919 22.22C135.759 21.3133 136.773 20.6 137.959 20.08C139.159 19.5467 140.513 19.28 142.019 19.28C143.273 19.28 144.433 19.4867 145.499 19.9C146.566 20.3 147.486 20.8933 148.259 21.68C149.033 22.4667 149.633 23.4333 150.059 24.58C150.499 25.7133 150.719 27.0067 150.719 28.46C150.719 29.1267 150.646 29.5733 150.499 29.8C150.353 30.0267 150.086 30.14 149.699 30.14H136.599ZM161.074 40.32C159.381 40.32 158.074 39.8467 157.154 38.9C156.247 37.94 155.794 36.5933 155.794 34.86V22.98H153.554C153.314 22.98 153.107 22.9067 152.934 22.76C152.761 22.6 152.674 22.3667 152.674 22.06V20.32L155.974 19.84L156.914 13.94C156.981 13.7133 157.094 13.5333 157.254 13.4C157.414 13.2533 157.627 13.18 157.894 13.18H160.094V19.88H165.754V22.98H160.094V34.56C160.094 35.2933 160.274 35.8533 160.634 36.24C160.994 36.6267 161.474 36.82 162.074 36.82C162.407 36.82 162.694 36.78 162.934 36.7C163.174 36.6067 163.381 36.5133 163.554 36.42C163.727 36.3133 163.874 36.22 163.994 36.14C164.127 36.0467 164.254 36 164.374 36C164.614 36 164.807 36.1333 164.954 36.4L166.234 38.5C165.567 39.0867 164.781 39.54 163.874 39.86C162.967 40.1667 162.034 40.32 161.074 40.32ZM202.644 40H197.984C197.664 40 197.404 39.9133 197.204 39.74C197.004 39.5667 196.844 39.3733 196.724 39.16L189.564 27.62C189.511 27.78 189.451 27.9333 189.384 28.08C189.331 28.2267 189.264 28.3667 189.184 28.5L182.264 39.16C182.118 39.3733 181.951 39.5667 181.764 39.74C181.591 39.9133 181.358 40 181.064 40H176.704L186.424 25.2L177.104 11.2H181.744C182.078 11.2 182.318 11.2533 182.464 11.36C182.624 11.4533 182.764 11.6 182.884 11.8L189.884 22.8C189.951 22.64 190.018 22.48 190.084 22.32C190.151 22.16 190.238 21.9933 190.344 21.82L196.864 11.88C196.998 11.6533 197.144 11.4867 197.304 11.38C197.464 11.26 197.658 11.2 197.884 11.2H202.344L192.944 25L202.644 40Z" fill="white"/>
</svg>
