<svg width="15" height="15" viewBox="0 0 15 15" fill="none" xmlns="http://www.w3.org/2000/svg">
<path d="M6.56484 0L5.62968 2.13335C5.44264 2.18714 5.27431 2.27677 5.10598 2.36641L2.8803 1.47004L1.53367 2.76081L2.46883 4.89416C2.37531 5.07344 2.3005 5.21685 2.22569 5.39613L0 6.2925V8.08523L2.22569 8.9816C2.3005 9.16087 2.37531 9.30429 2.46883 9.48356L1.53367 11.6169L2.8803 12.9077L5.10598 12.0113C5.27431 12.083 5.44264 12.1727 5.62968 12.2444L6.56484 14.3777H8.43516L9.37032 12.2444C9.53865 12.1727 9.72569 12.101 9.89402 12.0113L12.1197 12.9077L13.4663 11.6169L12.5312 9.48356C12.606 9.32222 12.6995 9.14294 12.7743 8.9816L15 8.08523V6.2925L12.7743 5.39613C12.7182 5.23478 12.6247 5.05551 12.5312 4.89416L13.4663 2.76081L12.1197 1.47004L9.89402 2.36641C9.72569 2.2947 9.53865 2.20506 9.37032 2.13335L8.43516 0L6.56484 0ZM7.5 4.48183C9.05237 4.48183 10.3055 5.68297 10.3055 7.17093C10.3055 8.6589 9.05237 9.86004 7.5 9.86004C5.94763 9.86004 4.69451 8.6589 4.69451 7.17093C4.69451 5.68297 5.94763 4.48183 7.5 4.48183Z" fill="white"/>
</svg>
